<?xml version="1.0" standalone="no"?>
<!DOCTYPE svg PUBLIC "-//W3C//DTD SVG 1.1//EN"
"http://www.w3.org/Graphics/SVG/1.1/DTD/svg11.dtd">
<svg width="800" height="600" version="1.1" xmlns="http://www.w3.org/2000/svg"><g><rect x="0" y="0" width="800" height="600" fill="#f9f9f9" /><g transform="translate(40 40)"><g transform="translate(54 0)"><text x="0" y="0" fill="#333" font-family="Monaco" font-size="16">Horsepower vs Acceleration</text></g><g transform="translate(0 20)"><g transform="translate(54 0)"><g class="axis bottom"><text x="333.0" y="486.0" dy="1em" fill="#666" transform="" text-anchor="middle" font-family="Monaco" font-size="14">Horsepower</text><g class="tick"><line x1="222.0000000000000000000000000" y1="0" x2="222.0000000000000000000000000" y2="452.0" stroke="#eee" stroke-width="1" /><text x="222.0000000000000000000000000" y="456.0" dy="1em" fill="#9c9c9c" text-anchor="middle" font-family="Monaco" font-size="14">100</text></g><g class="tick"><line x1="444.0000000000000000000000000" y1="0" x2="444.0000000000000000000000000" y2="452.0" stroke="#eee" stroke-width="1" /><text x="444.0000000000000000000000000" y="456.0" dy="1em" fill="#9c9c9c" text-anchor="middle" font-family="Monaco" font-size="14">200</text></g><g class="tick"><line x1="666" y1="0" x2="666" y2="452.0" stroke="#eee" stroke-width="1" /><text x="666" y="456.0" dy="1em" fill="#9c9c9c" text-anchor="middle" font-family="Monaco" font-size="14">300</text></g><g class="tick"><line x1="0" y1="0" x2="0" y2="452.0" stroke="#a8a8a8" stroke-width="1" /><text x="0" y="456.0" dy="1em" fill="#9c9c9c" text-anchor="middle" font-family="Monaco" font-size="14">0</text></g></g><g class="axis left"><text x="-32" y="224.0" dy="" fill="#666" transform="rotate(270 -32 224)" text-anchor="middle" font-family="Monaco" font-size="14">Acceleration</text><g class="tick"><line x1="-4" y1="448" x2="666.0" y2="448" stroke="#eee" stroke-width="1" /><text x="-8" y="448" dy="0.32em" fill="#9c9c9c" text-anchor="end" font-family="Monaco" font-size="14">5</text></g><g class="tick"><line x1="-4" y1="336.00" x2="666.0" y2="336.00" stroke="#eee" stroke-width="1" /><text x="-8" y="336.00" dy="0.32em" fill="#9c9c9c" text-anchor="end" font-family="Monaco" font-size="14">10</text></g><g class="tick"><line x1="-4" y1="224.0" x2="666.0" y2="224.0" stroke="#eee" stroke-width="1" /><text x="-8" y="224.0" dy="0.32em" fill="#9c9c9c" text-anchor="end" font-family="Monaco" font-size="14">15</text></g><g class="tick"><line x1="-4" y1="112.00" x2="666.0" y2="112.00" stroke="#eee" stroke-width="1" /><text x="-8" y="112.00" dy="0.32em" fill="#9c9c9c" text-anchor="end" font-family="Monaco" font-size="14">20</text></g><g class="tick"><line x1="-4" y1="0" x2="666.0" y2="0" stroke="#eee" stroke-width="1" /><text x="-8" y="0" dy="0.32em" fill="#9c9c9c" text-anchor="end" font-family="Monaco" font-size="14">25</text></g></g><g><g class="series dots"><circle cx="288.6000000000000000000000000" cy="291.20" r="3" fill="red" /><circle cx="366.30" cy="302.400" r="3" fill="red" /><circle cx="333.0" cy="313.6" r="3" fill="red" /><circle cx="333.0" cy="291.20" r="3" fill="red" /><circle cx="310.8000000000000000000000000" cy="324.800" r="3" fill="red" /><circle cx="439.56" cy="336.00" r="3" fill="red" /><circle cx="488.4000000000000000000000000" cy="358.4" r="3" fill="red" /><circle cx="477.3000000000000000000000000" cy="369.600" r="3" fill="red" /><circle cx="499.50" cy="336.00" r="3" fill="red" /><circle cx="421.8000000000000000000000000" cy="369.600" r="3" fill="red" /><circle cx="377.4000000000000000000000000" cy="336.00" r="3" fill="red" /><circle cx="355.2000000000000000000000000" cy="380.80" r="3" fill="red" /><circle cx="333.0" cy="347.200" r="3" fill="red" /><circle cx="499.50" cy="336.00" r="3" fill="red" /><circle cx="210.9000000000000000000000000" cy="224.0" r="3" fill="red" /><circle cx="210.9000000000000000000000000" cy="212.800" r="3" fill="red" /><circle cx="215.3400000000000000000000000" cy="212.800" r="3" fill="red" /><circle cx="188.7000000000000000000000000" cy="201.60" r="3" fill="red" /><circle cx="195.3600000000000000000000000" cy="235.200" r="3" fill="red" /><circle cx="102.1200000000000000000000000" cy="100.800" r="3" fill="red" /><circle cx="193.14" cy="168.000" r="3" fill="red" /><circle cx="199.8" cy="235.200" r="3" fill="red" /><circle cx="210.9000000000000000000000000" cy="168.000" r="3" fill="red" /><circle cx="250.8600000000000000000000000" cy="280.000" r="3" fill="red" /><circle cx="199.8" cy="224.0" r="3" fill="red" /><circle cx="477.3000000000000000000000000" cy="246.40" r="3" fill="red" /><circle cx="444.0000000000000000000000000" cy="224.0" r="3" fill="red" /><circle cx="466.2" cy="257.600" r="3" fill="red" /><circle cx="428.4600000000000000000000000" cy="145.600" r="3" fill="red" /><circle cx="195.3600000000000000000000000" cy="235.200" r="3" fill="red" /><circle cx="199.8" cy="212.800" r="3" fill="red" /><circle cx="210.9000000000000000000000000" cy="246.40" r="3" fill="red" /><circle cx="NaN" cy="134.4" r="3" fill="red" /><circle cx="222.0000000000000000000000000" cy="268.8" r="3" fill="red" /><circle cx="233.10" cy="212.800" r="3" fill="red" /><circle cx="222.0000000000000000000000000" cy="212.800" r="3" fill="red" /><circle cx="195.3600000000000000000000000" cy="212.800" r="3" fill="red" /><circle cx="222.0000000000000000000000000" cy="212.800" r="3" fill="red" /><circle cx="366.30" cy="291.20" r="3" fill="red" /><circle cx="388.5000000000000000000000000" cy="302.400" r="3" fill="red" /><circle cx="339.66" cy="257.600" r="3" fill="red" /><circle cx="333.0" cy="268.8" r="3" fill="red" /><circle cx="399.6" cy="302.400" r="3" fill="red" /><circle cx="377.4000000000000000000000000" cy="291.20" r="3" fill="red" /><circle cx="388.5000000000000000000000000" cy="291.20" r="3" fill="red" /><circle cx="244.2000000000000000000000000" cy="257.600" r="3" fill="red" /><circle cx="159.84" cy="134.4" r="3" fill="red" /><circle cx="222.0000000000000000000000000" cy="224.0" r="3" fill="red" /><circle cx="195.3600000000000000000000000" cy="235.200" r="3" fill="red" /><circle cx="190.9200000000000000000000000" cy="246.40" r="3" fill="red" /><circle cx="199.8" cy="246.40" r="3" fill="red" /><circle cx="155.4000000000000000000000000" cy="123.200" r="3" fill="red" /><circle cx="168.7200000000000000000000000" cy="235.200" r="3" fill="red" /><circle cx="144.3000000000000000000000000" cy="134.4" r="3" fill="red" /><circle cx="153.18" cy="156.80" r="3" fill="red" /><circle cx="133.2" cy="134.4" r="3" fill="red" /><circle cx="155.4000000000000000000000000" cy="100.800" r="3" fill="red" /><circle cx="210.9000000000000000000000000" cy="212.800" r="3" fill="red" /><circle cx="177.6000000000000000000000000" cy="179.2" r="3" fill="red" /><circle cx="119.88" cy="33.600" r="3" fill="red" /><circle cx="199.8" cy="123.200" r="3" fill="red" /><circle cx="190.9200000000000000000000000" cy="190.400" r="3" fill="red" /><circle cx="366.30" cy="291.20" r="3" fill="red" /><circle cx="388.5000000000000000000000000" cy="291.20" r="3" fill="red" /><circle cx="333.0" cy="257.600" r="3" fill="red" /><circle cx="339.66" cy="268.8" r="3" fill="red" /><circle cx="333.0" cy="302.400" r="3" fill="red" /><circle cx="461.7600000000000000000000000" cy="313.6" r="3" fill="red" /><circle cx="344.1000000000000000000000000" cy="257.600" r="3" fill="red" /><circle cx="355.2000000000000000000000000" cy="257.600" r="3" fill="red" /><circle cx="421.8000000000000000000000000" cy="280.000" r="3" fill="red" /><circle cx="215.3400000000000000000000000" cy="257.600" r="3" fill="red" /><circle cx="333.0" cy="280.000" r="3" fill="red" /><circle cx="288.6000000000000000000000000" cy="246.40" r="3" fill="red" /><circle cx="310.8000000000000000000000000" cy="201.60" r="3" fill="red" /><circle cx="333.0" cy="246.40" r="3" fill="red" /><circle cx="248.6400000000000000000000000" cy="235.200" r="3" fill="red" /><circle cx="168.7200000000000000000000000" cy="156.80" r="3" fill="red" /><circle cx="193.14" cy="123.200" r="3" fill="red" /><circle cx="153.18" cy="156.80" r="3" fill="red" /><circle cx="190.9200000000000000000000000" cy="201.60" r="3" fill="red" /><circle cx="204.2400000000000000000000000" cy="179.2" r="3" fill="red" /><circle cx="215.3400000000000000000000000" cy="235.200" r="3" fill="red" /><circle cx="177.6000000000000000000000000" cy="224.0" r="3" fill="red" /><circle cx="195.3600000000000000000000000" cy="190.400" r="3" fill="red" /><circle cx="388.5000000000000000000000000" cy="268.8" r="3" fill="red" /><circle cx="333.0" cy="302.400" r="3" fill="red" /><circle cx="321.9000000000000000000000000" cy="268.8" r="3" fill="red" /><circle cx="304.1400000000000000000000000" cy="235.200" r="3" fill="red" /><circle cx="333.0" cy="280.000" r="3" fill="red" /><circle cx="439.56" cy="302.400" r="3" fill="red" /><circle cx="333.0" cy="291.20" r="3" fill="red" /><circle cx="350.7600000000000000000000000" cy="268.8" r="3" fill="red" /><circle cx="333.0" cy="235.200" r="3" fill="red" /><circle cx="477.3000000000000000000000000" cy="313.6" r="3" fill="red" /><circle cx="499.50" cy="313.6" r="3" fill="red" /><circle cx="388.5000000000000000000000000" cy="313.6" r="3" fill="red" /><circle cx="233.10" cy="190.400" r="3" fill="red" /><circle cx="222.0000000000000000000000000" cy="156.80" r="3" fill="red" /><circle cx="222.0000000000000000000000000" cy="201.60" r="3" fill="red" /><circle cx="195.3600000000000000000000000" cy="190.400" r="3" fill="red" /><circle cx="210.9000000000000000000000000" cy="201.60" r="3" fill="red" /><circle cx="102.1200000000000000000000000" cy="89.6" r="3" fill="red" /><circle cx="333.0" cy="246.40" r="3" fill="red" /><circle cx="370.7400000000000000000000000" cy="280.000" r="3" fill="red" /><circle cx="377.4000000000000000000000000" cy="268.8" r="3" fill="red" /><circle cx="399.6" cy="280.000" r="3" fill="red" /><circle cx="222.0000000000000000000000000" cy="224.0" r="3" fill="red" /><circle cx="195.3600000000000000000000000" cy="134.4" r="3" fill="red" /><circle cx="159.84" cy="123.200" r="3" fill="red" /><circle cx="208.6800000000000000000000000" cy="190.400" r="3" fill="red" /><circle cx="199.8" cy="257.600" r="3" fill="red" /><circle cx="188.7000000000000000000000000" cy="145.600" r="3" fill="red" /><circle cx="237.5400000000000000000000000" cy="246.40" r="3" fill="red" /><circle cx="199.8" cy="212.800" r="3" fill="red" /><circle cx="321.9000000000000000000000000" cy="268.8" r="3" fill="red" /><circle cx="510.6000000000000000000000000" cy="347.200" r="3" fill="red" /><circle cx="108.7800000000000000000000000" cy="123.200" r="3" fill="red" /><circle cx="166.50" cy="212.800" r="3" fill="red" /><circle cx="202.0200000000000000000000000" cy="246.40" r="3" fill="red" /><circle cx="248.6400000000000000000000000" cy="212.800" r="3" fill="red" /><circle cx="333.0" cy="313.6" r="3" fill="red" /><circle cx="244.2000000000000000000000000" cy="246.40" r="3" fill="red" /><circle cx="270.8400000000000000000000000" cy="257.600" r="3" fill="red" /><circle cx="399.6" cy="313.6" r="3" fill="red" /><circle cx="210.9000000000000000000000000" cy="190.400" r="3" fill="red" /><circle cx="NaN" cy="179.2" r="3" fill="red" /><circle cx="222.0000000000000000000000000" cy="201.60" r="3" fill="red" /><circle cx="222.0000000000000000000000000" cy="179.2" r="3" fill="red" /><circle cx="148.7400000000000000000000000" cy="134.4" r="3" fill="red" /><circle cx="177.6000000000000000000000000" cy="190.400" r="3" fill="red" /><circle cx="144.3000000000000000000000000" cy="89.6" r="3" fill="red" /><circle cx="166.50" cy="179.2" r="3" fill="red" /><circle cx="222.0000000000000000000000000" cy="179.2" r="3" fill="red" /><circle cx="244.2000000000000000000000000" cy="156.80" r="3" fill="red" /><circle cx="233.10" cy="190.400" r="3" fill="red" /><circle cx="310.8000000000000000000000000" cy="246.40" r="3" fill="red" /><circle cx="333.0" cy="235.200" r="3" fill="red" /><circle cx="333.0" cy="257.600" r="3" fill="red" /><circle cx="310.8000000000000000000000000" cy="201.60" r="3" fill="red" /><circle cx="333.0" cy="212.800" r="3" fill="red" /><circle cx="184.2600000000000000000000000" cy="190.400" r="3" fill="red" /><circle cx="148.7400000000000000000000000" cy="212.800" r="3" fill="red" /><circle cx="173.16" cy="235.200" r="3" fill="red" /><circle cx="115.4400000000000000000000000" cy="190.400" r="3" fill="red" /><circle cx="135.4200000000000000000000000" cy="134.4" r="3" fill="red" /><circle cx="166.50" cy="235.200" r="3" fill="red" /><circle cx="166.50" cy="212.800" r="3" fill="red" /><circle cx="166.50" cy="246.40" r="3" fill="red" /><circle cx="215.3400000000000000000000000" cy="224.0" r="3" fill="red" /><circle cx="206.46" cy="212.800" r="3" fill="red" /><circle cx="148.7400000000000000000000000" cy="201.60" r="3" fill="red" /><circle cx="210.9000000000000000000000000" cy="201.60" r="3" fill="red" /><circle cx="233.10" cy="201.60" r="3" fill="red" /><circle cx="159.84" cy="89.6" r="3" fill="red" /><circle cx="159.84" cy="123.200" r="3" fill="red" /><circle cx="377.4000000000000000000000000" cy="302.400" r="3" fill="red" /><circle cx="321.9000000000000000000000000" cy="246.40" r="3" fill="red" /><circle cx="333.0" cy="235.200" r="3" fill="red" /><circle cx="328.5600000000000000000000000" cy="257.600" r="3" fill="red" /><circle cx="244.2000000000000000000000000" cy="89.6" r="3" fill="red" /><circle cx="233.10" cy="145.600" r="3" fill="red" /><circle cx="244.2000000000000000000000000" cy="134.4" r="3" fill="red" /><circle cx="210.9000000000000000000000000" cy="134.4" r="3" fill="red" /><circle cx="244.2000000000000000000000000" cy="224.0" r="3" fill="red" /><circle cx="244.2000000000000000000000000" cy="257.600" r="3" fill="red" /><circle cx="286.38" cy="291.20" r="3" fill="red" /><circle cx="166.50" cy="201.60" r="3" fill="red" /><circle cx="184.2600000000000000000000000" cy="179.2" r="3" fill="red" /><circle cx="222.0000000000000000000000000" cy="201.60" r="3" fill="red" /><circle cx="173.16" cy="145.600" r="3" fill="red" /><circle cx="213.12" cy="257.600" r="3" fill="red" /><circle cx="157.6200000000000000000000000" cy="190.400" r="3" fill="red" /><circle cx="215.3400000000000000000000000" cy="179.2" r="3" fill="red" /><circle cx="215.3400000000000000000000000" cy="235.200" r="3" fill="red" /><circle cx="155.4000000000000000000000000" cy="246.40" r="3" fill="red" /><circle cx="199.8" cy="179.2" r="3" fill="red" /><circle cx="210.9000000000000000000000000" cy="224.0" r="3" fill="red" /><circle cx="195.3600000000000000000000000" cy="179.2" r="3" fill="red" /><circle cx="217.5600000000000000000000000" cy="235.200" r="3" fill="red" /><circle cx="255.3000000000000000000000000" cy="257.600" r="3" fill="red" /><circle cx="117.6600000000000000000000000" cy="168.000" r="3" fill="red" /><circle cx="190.9200000000000000000000000" cy="212.800" r="3" fill="red" /><circle cx="179.82" cy="181.4400000000000318323145620" r="3" fill="red" /><circle cx="204.2400000000000000000000000" cy="226.2399999999999920419213595" r="3" fill="red" /><circle cx="175.3800000000000000000000000" cy="163.5200000000000159161572810" r="3" fill="red" /><circle cx="184.2600000000000000000000000" cy="217.2799999999999840838427190" r="3" fill="red" /><circle cx="310.8000000000000000000000000" cy="268.8" r="3" fill="red" /><circle cx="333.0" cy="268.8" r="3" fill="red" /><circle cx="266.4" cy="248.6399999999999920419213595" r="3" fill="red" /><circle cx="337.4400000000000000000000000" cy="273.2799999999999840838427190" r="3" fill="red" /><circle cx="222.0000000000000000000000000" cy="215.0399999999999920419213595" r="3" fill="red" /><circle cx="233.10" cy="235.200" r="3" fill="red" /><circle cx="179.82" cy="165.7599999999999681676854380" r="3" fill="red" /><circle cx="199.8" cy="165.7599999999999681676854380" r="3" fill="red" /><circle cx="115.4400000000000000000000000" cy="62.7200000000000159161572810" r="3" fill="red" /><circle cx="133.2" cy="64.9599999999999681676854380" r="3" fill="red" /><circle cx="155.4000000000000000000000000" cy="241.9200000000000159161572810" r="3" fill="red" /><circle cx="117.6600000000000000000000000" cy="170.2400000000000318323145620" r="3" fill="red" /><circle cx="222.0000000000000000000000000" cy="163.5200000000000159161572810" r="3" fill="red" /><circle cx="173.16" cy="89.6" r="3" fill="red" /><circle cx="244.2000000000000000000000000" cy="197.1200000000000159161572810" r="3" fill="red" /><circle cx="210.9000000000000000000000000" cy="161.2799999999999840838427190" r="3" fill="red" /><circle cx="157.6200000000000000000000000" cy="286.7200000000000159161572810" r="3" fill="red" /><circle cx="155.4000000000000000000000000" cy="179.2" r="3" fill="red" /><circle cx="166.50" cy="192.6400000000000318323145620" r="3" fill="red" /><circle cx="159.84" cy="255.3600000000000079580786405" r="3" fill="red" /><circle cx="226.44" cy="208.3200000000000159161572810" r="3" fill="red" /><circle cx="333.0" cy="264.3200000000000159161572810" r="3" fill="red" /><circle cx="195.3600000000000000000000000" cy="69.4400000000000318323145620" r="3" fill="red" /><circle cx="239.76" cy="212.800" r="3" fill="red" /><circle cx="266.4" cy="185.9200000000000159161572810" r="3" fill="red" /><circle cx="399.6" cy="288.9600000000000079580786405" r="3" fill="red" /><circle cx="321.9000000000000000000000000" cy="291.20" r="3" fill="red" /><circle cx="288.6000000000000000000000000" cy="224.0" r="3" fill="red" /><circle cx="333.0" cy="246.40" r="3" fill="red" /><circle cx="150.9600000000000000000000000" cy="145.600" r="3" fill="red" /><circle cx="177.6000000000000000000000000" cy="228.4799999999999840838427190" r="3" fill="red" /><circle cx="128.7600000000000000000000000" cy="143.3599999999999681676854380" r="3" fill="red" /><circle cx="213.12" cy="212.800" r="3" fill="red" /><circle cx="155.4000000000000000000000000" cy="183.6799999999999840838427190" r="3" fill="red" /><circle cx="321.9000000000000000000000000" cy="280.000" r="3" fill="red" /><circle cx="244.2000000000000000000000000" cy="134.4" r="3" fill="red" /><circle cx="321.9000000000000000000000000" cy="253.1200000000000159161572810" r="3" fill="red" /><circle cx="288.6000000000000000000000000" cy="226.2399999999999920419213595" r="3" fill="red" /><circle cx="244.2000000000000000000000000" cy="192.6400000000000318323145620" r="3" fill="red" /><circle cx="233.10" cy="181.4400000000000318323145620" r="3" fill="red" /><circle cx="222.0000000000000000000000000" cy="163.5200000000000159161572810" r="3" fill="red" /><circle cx="217.5600000000000000000000000" cy="134.4" r="3" fill="red" /><circle cx="399.6" cy="311.3600000000000079580786405" r="3" fill="red" /><circle cx="377.4000000000000000000000000" cy="304.6399999999999920419213595" r="3" fill="red" /><circle cx="421.8000000000000000000000000" cy="286.7200000000000159161572810" r="3" fill="red" /><circle cx="330.7800000000000000000000000" cy="235.200" r="3" fill="red" /><circle cx="173.16" cy="235.200" r="3" fill="red" /><circle cx="195.3600000000000000000000000" cy="201.60" r="3" fill="red" /><circle cx="166.50" cy="152.3200000000000159161572810" r="3" fill="red" /><circle cx="197.5800000000000000000000000" cy="206.0799999999999840838427190" r="3" fill="red" /><circle cx="139.86" cy="179.2" r="3" fill="red" /><circle cx="184.2600000000000000000000000" cy="203.8399999999999920419213595" r="3" fill="red" /><circle cx="148.7400000000000000000000000" cy="192.6400000000000318323145620" r="3" fill="red" /><circle cx="173.16" cy="244.1600000000000079580786405" r="3" fill="red" /><circle cx="215.3400000000000000000000000" cy="235.200" r="3" fill="red" /><circle cx="244.2000000000000000000000000" cy="273.2799999999999840838427190" r="3" fill="red" /><circle cx="244.2000000000000000000000000" cy="257.600" r="3" fill="red" /><circle cx="106.56" cy="78.400" r="3" fill="red" /><circle cx="146.52" cy="237.4399999999999920419213595" r="3" fill="red" /><circle cx="115.4400000000000000000000000" cy="125.4400000000000318323145620" r="3" fill="red" /><circle cx="155.4000000000000000000000000" cy="143.3599999999999681676854380" r="3" fill="red" /><circle cx="133.2" cy="192.6400000000000318323145620" r="3" fill="red" /><circle cx="244.2000000000000000000000000" cy="212.800" r="3" fill="red" /><circle cx="310.8000000000000000000000000" cy="264.3200000000000159161572810" r="3" fill="red" /><circle cx="308.5800000000000000000000000" cy="273.2799999999999840838427190" r="3" fill="red" /><circle cx="233.10" cy="129.9200000000000159161572810" r="3" fill="red" /><circle cx="210.9000000000000000000000000" cy="152.3200000000000159161572810" r="3" fill="red" /><circle cx="188.7000000000000000000000000" cy="206.0799999999999840838427190" r="3" fill="red" /><circle cx="195.3600000000000000000000000" cy="215.0399999999999920419213595" r="3" fill="red" /><circle cx="222.0000000000000000000000000" cy="174.7200000000000159161572810" r="3" fill="red" /><circle cx="199.8" cy="174.7200000000000159161572810" r="3" fill="red" /><circle cx="233.10" cy="206.0799999999999840838427190" r="3" fill="red" /><circle cx="188.7000000000000000000000000" cy="185.9200000000000159161572810" r="3" fill="red" /><circle cx="244.2000000000000000000000000" cy="141.1200000000000159161572810" r="3" fill="red" /><circle cx="266.4" cy="221.7600000000000079580786405" r="3" fill="red" /><circle cx="321.9000000000000000000000000" cy="264.3200000000000159161572810" r="3" fill="red" /><circle cx="366.30" cy="259.8399999999999920419213595" r="3" fill="red" /><circle cx="308.5800000000000000000000000" cy="309.1200000000000159161572810" r="3" fill="red" /><circle cx="310.8000000000000000000000000" cy="253.1200000000000159161572810" r="3" fill="red" /><circle cx="150.9600000000000000000000000" cy="190.400" r="3" fill="red" /><circle cx="210.9000000000000000000000000" cy="241.9200000000000159161572810" r="3" fill="red" /><circle cx="215.3400000000000000000000000" cy="230.7200000000000159161572810" r="3" fill="red" /><circle cx="166.50" cy="235.200" r="3" fill="red" /><circle cx="210.9000000000000000000000000" cy="228.4799999999999840838427190" r="3" fill="red" /><circle cx="233.10" cy="185.9200000000000159161572810" r="3" fill="red" /><circle cx="188.7000000000000000000000000" cy="165.7599999999999681676854380" r="3" fill="red" /><circle cx="215.3400000000000000000000000" cy="226.2399999999999920419213595" r="3" fill="red" /><circle cx="228.6600000000000000000000000" cy="203.8399999999999920419213595" r="3" fill="red" /><circle cx="277.5000000000000000000000000" cy="255.3600000000000079580786405" r="3" fill="red" /><circle cx="255.3000000000000000000000000" cy="208.3200000000000159161572810" r="3" fill="red" /><circle cx="295.2600000000000000000000000" cy="206.0799999999999840838427190" r="3" fill="red" /><circle cx="157.6200000000000000000000000" cy="226.2399999999999920419213595" r="3" fill="red" /><circle cx="150.9600000000000000000000000" cy="188.1599999999999681676854380" r="3" fill="red" /><circle cx="255.3000000000000000000000000" cy="215.0399999999999920419213595" r="3" fill="red" /><circle cx="188.7000000000000000000000000" cy="152.3200000000000159161572810" r="3" fill="red" /><circle cx="195.3600000000000000000000000" cy="172.4799999999999840838427190" r="3" fill="red" /><circle cx="199.8" cy="152.3200000000000159161572810" r="3" fill="red" /><circle cx="244.2000000000000000000000000" cy="188.1599999999999681676854380" r="3" fill="red" /><circle cx="288.6000000000000000000000000" cy="215.0399999999999920419213595" r="3" fill="red" /><circle cx="286.38" cy="259.8399999999999920419213595" r="3" fill="red" /><circle cx="306.36" cy="264.3200000000000159161572810" r="3" fill="red" /><circle cx="299.70" cy="219.5200000000000159161572810" r="3" fill="red" /><circle cx="344.1000000000000000000000000" cy="226.2399999999999920419213595" r="3" fill="red" /><circle cx="315.2400000000000000000000000" cy="239.6799999999999840838427190" r="3" fill="red" /><circle cx="277.5000000000000000000000000" cy="224.0" r="3" fill="red" /><circle cx="333.0" cy="268.8" r="3" fill="red" /><circle cx="157.6200000000000000000000000" cy="246.40" r="3" fill="red" /><circle cx="144.3000000000000000000000000" cy="219.5200000000000159161572810" r="3" fill="red" /><circle cx="177.6000000000000000000000000" cy="237.4399999999999920419213595" r="3" fill="red" /><circle cx="177.6000000000000000000000000" cy="224.0" r="3" fill="red" /><circle cx="170.9400000000000000000000000" cy="109.7599999999999681676854380" r="3" fill="red" /><circle cx="277.5000000000000000000000000" cy="170.2400000000000318323145620" r="3" fill="red" /><circle cx="157.6200000000000000000000000" cy="4.4799999999999840838427190" r="3" fill="red" /><circle cx="199.8" cy="62.7200000000000159161572810" r="3" fill="red" /><circle cx="155.4000000000000000000000000" cy="264.3200000000000159161572810" r="3" fill="red" /><circle cx="155.4000000000000000000000000" cy="226.2399999999999920419213595" r="3" fill="red" /><circle cx="144.3000000000000000000000000" cy="129.9200000000000159161572810" r="3" fill="red" /><circle cx="153.18" cy="230.7200000000000159161572810" r="3" fill="red" /><circle cx="199.8" cy="201.60" r="3" fill="red" /><circle cx="255.3000000000000000000000000" cy="306.8799999999999840838427190" r="3" fill="red" /><circle cx="255.3000000000000000000000000" cy="271.0399999999999920419213595" r="3" fill="red" /><circle cx="199.8" cy="264.3200000000000159161572810" r="3" fill="red" /><circle cx="168.7200000000000000000000000" cy="230.7200000000000159161572810" r="3" fill="red" /><circle cx="133.2" cy="138.8799999999999840838427190" r="3" fill="red" /><circle cx="155.4000000000000000000000000" cy="212.800" r="3" fill="red" /><circle cx="144.3000000000000000000000000" cy="192.6400000000000318323145620" r="3" fill="red" /><circle cx="199.8" cy="190.400" r="3" fill="red" /><circle cx="195.3600000000000000000000000" cy="154.5599999999999681676854380" r="3" fill="red" /><circle cx="199.8" cy="109.7599999999999681676854380" r="3" fill="red" /><circle cx="199.8" cy="141.1200000000000159161572810" r="3" fill="red" /><circle cx="173.16" cy="206.0799999999999840838427190" r="3" fill="red" /><circle cx="199.8" cy="212.800" r="3" fill="red" /><circle cx="166.50" cy="168.000" r="3" fill="red" /><circle cx="204.2400000000000000000000000" cy="224.0" r="3" fill="red" /><circle cx="166.50" cy="219.5200000000000159161572810" r="3" fill="red" /><circle cx="144.3000000000000000000000000" cy="159.0400000000000318323145620" r="3" fill="red" /><circle cx="233.10" cy="237.4399999999999920419213595" r="3" fill="red" /><circle cx="144.3000000000000000000000000" cy="129.9200000000000159161572810" r="3" fill="red" /><circle cx="106.56" cy="73.9200000000000159161572810" r="3" fill="red" /><circle cx="106.56" cy="29.1200000000000159161572810" r="3" fill="red" /><circle cx="148.7400000000000000000000000" cy="114.2400000000000318323145620" r="3" fill="red" /><circle cx="148.7400000000000000000000000" cy="71.6799999999999840838427190" r="3" fill="red" /><circle cx="148.7400000000000000000000000" cy="250.8799999999999840838427190" r="3" fill="red" /><circle cx="NaN" cy="172.4799999999999840838427190" r="3" fill="red" /><circle cx="148.7400000000000000000000000" cy="156.80" r="3" fill="red" /><circle cx="137.6400000000000000000000000" cy="217.2799999999999840838427190" r="3" fill="red" /><circle cx="293.04" cy="304.6399999999999920419213595" r="3" fill="red" /><circle cx="222.0000000000000000000000000" cy="280.000" r="3" fill="red" /><circle cx="195.3600000000000000000000000" cy="221.7600000000000079580786405" r="3" fill="red" /><circle cx="NaN" cy="239.6799999999999840838427190" r="3" fill="red" /><circle cx="159.84" cy="179.2" r="3" fill="red" /><circle cx="186.48" cy="208.3200000000000159161572810" r="3" fill="red" /><circle cx="186.48" cy="192.6400000000000318323145620" r="3" fill="red" /><circle cx="204.2400000000000000000000000" cy="237.4399999999999920419213595" r="3" fill="red" /><circle cx="244.2000000000000000000000000" cy="277.7600000000000079580786405" r="3" fill="red" /><circle cx="186.48" cy="271.0399999999999920419213595" r="3" fill="red" /><circle cx="128.7600000000000000000000000" cy="181.4400000000000318323145620" r="3" fill="red" /><circle cx="142.0800000000000000000000000" cy="192.6400000000000318323145620" r="3" fill="red" /><circle cx="133.2" cy="199.3599999999999681676854380" r="3" fill="red" /><circle cx="148.7400000000000000000000000" cy="161.2799999999999840838427190" r="3" fill="red" /><circle cx="144.3000000000000000000000000" cy="125.4400000000000318323145620" r="3" fill="red" /><circle cx="137.6400000000000000000000000" cy="172.4799999999999840838427190" r="3" fill="red" /><circle cx="150.9600000000000000000000000" cy="201.60" r="3" fill="red" /><circle cx="139.86" cy="226.2399999999999920419213595" r="3" fill="red" /><circle cx="144.3000000000000000000000000" cy="197.1200000000000159161572810" r="3" fill="red" /><circle cx="144.3000000000000000000000000" cy="96.3200000000000159161572810" r="3" fill="red" /><circle cx="164.2800000000000000000000000" cy="241.9200000000000159161572810" r="3" fill="red" /><circle cx="NaN" cy="206.0799999999999840838427190" r="3" fill="red" /><circle cx="166.50" cy="237.4399999999999920419213595" r="3" fill="red" /><circle cx="166.50" cy="183.6799999999999840838427190" r="3" fill="red" /><circle cx="222.0000000000000000000000000" cy="228.4799999999999840838427190" r="3" fill="red" /><circle cx="164.2800000000000000000000000" cy="150.0799999999999840838427190" r="3" fill="red" /><circle cx="177.6000000000000000000000000" cy="103.0400000000000318323145620" r="3" fill="red" /><circle cx="168.7200000000000000000000000" cy="120.9599999999999681676854380" r="3" fill="red" /><circle cx="257.5200000000000000000000000" cy="277.7600000000000079580786405" r="3" fill="red" /><circle cx="266.4" cy="250.8799999999999840838427190" r="3" fill="red" /><circle cx="244.2000000000000000000000000" cy="206.0799999999999840838427190" r="3" fill="red" /><circle cx="233.10" cy="134.4" r="3" fill="red" /><circle cx="195.3600000000000000000000000" cy="176.9599999999999681676854380" r="3" fill="red" /><circle cx="188.7000000000000000000000000" cy="188.1599999999999681676854380" r="3" fill="red" /><circle cx="195.3600000000000000000000000" cy="120.9599999999999681676854380" r="3" fill="red" /><circle cx="195.3600000000000000000000000" cy="143.3599999999999681676854380" r="3" fill="red" /><circle cx="195.3600000000000000000000000" cy="156.80" r="3" fill="red" /><circle cx="188.7000000000000000000000000" cy="197.1200000000000159161572810" r="3" fill="red" /><circle cx="186.48" cy="201.60" r="3" fill="red" /><circle cx="199.8" cy="156.80" r="3" fill="red" /><circle cx="204.2400000000000000000000000" cy="192.6400000000000318323145620" r="3" fill="red" /><circle cx="NaN" cy="100.800" r="3" fill="red" /><circle cx="164.2800000000000000000000000" cy="217.2799999999999840838427190" r="3" fill="red" /><circle cx="150.9600000000000000000000000" cy="152.3200000000000159161572810" r="3" fill="red" /><circle cx="150.9600000000000000000000000" cy="165.7599999999999681676854380" r="3" fill="red" /><circle cx="139.86" cy="230.7200000000000159161572810" r="3" fill="red" /><circle cx="155.4000000000000000000000000" cy="172.4799999999999840838427190" r="3" fill="red" /><circle cx="195.3600000000000000000000000" cy="235.200" r="3" fill="red" /><circle cx="166.50" cy="235.200" r="3" fill="red" /><circle cx="155.4000000000000000000000000" cy="181.4400000000000318323145620" r="3" fill="red" /><circle cx="148.7400000000000000000000000" cy="224.0" r="3" fill="red" /><circle cx="148.7400000000000000000000000" cy="208.3200000000000159161572810" r="3" fill="red" /><circle cx="148.7400000000000000000000000" cy="197.1200000000000159161572810" r="3" fill="red" /><circle cx="244.2000000000000000000000000" cy="192.6400000000000318323145620" r="3" fill="red" /><circle cx="188.7000000000000000000000000" cy="179.2" r="3" fill="red" /><circle cx="204.2400000000000000000000000" cy="235.200" r="3" fill="red" /><circle cx="248.6400000000000000000000000" cy="230.7200000000000159161572810" r="3" fill="red" /><circle cx="213.12" cy="248.6399999999999920419213595" r="3" fill="red" /><circle cx="186.48" cy="268.8" r="3" fill="red" /><circle cx="199.8" cy="172.4799999999999840838427190" r="3" fill="red" /><circle cx="190.9200000000000000000000000" cy="210.5600000000000079580786405" r="3" fill="red" /><circle cx="115.4400000000000000000000000" cy="8.9599999999999681676854380" r="3" fill="red" /><circle cx="186.48" cy="300.1600000000000079580786405" r="3" fill="red" /><circle cx="175.3800000000000000000000000" cy="143.3599999999999681676854380" r="3" fill="red" /><circle cx="182.0400000000000000000000000" cy="125.4400000000000318323145620" r="3" fill="red" /></g></g></g></g></g></g></svg>